# xmcd
#
# Track frame offsets: 
#        197
#        14402
#        28227
#        43125
#        52150
#        59347
#        72962
#        82902
#        94115
#        109577
#
# Disc length: 2119 seconds
#
# Revision: 4
# Processed by: cddbd v1.5.2PL0 Copyright (c) Steve Scherf et al.
# Submitted via: ExactAudioCopy v0.95b3
#
DISCID=8508450a
DTITLE=The Doors - Strange Days [1995 DCC]
DYEAR=1967
DGENRE=Rock
TTITLE0=Strange Days
TTITLE1=You're Lost Little Girl
TTITLE2=Love Me Two Times
TTITLE3=Unhappy Girl
TTITLE4=Horse Latitudes
TTITLE5=Moonlight Drive
TTITLE6=People Are Strange
TTITLE7=My Eyes Have Seen You
TTITLE8=I Can't See Your Face In My Mind
TTITLE9=When The Music's Over
EXTD=Produced by Paul A. Rothschild\n YEAR: 1967
EXTT0=
EXTT1=
EXTT2=
EXTT3=
EXTT4=
EXTT5=
EXTT6=
EXTT7=
EXTT8=
EXTT9=
PLAYORDER=
